PathFileType	4	(X/Y/Z)	T1_P2_NoVision_Movement_1_0-729.trc
DataRate	CameraRate	NumFrames	NumMarkers	Units	OrigDataRate	OrigDataStartFrame	OrigNumFrames
60	60	5	27	m	60	546	729
Frame#	Time	RHip			RKnee			RAnkle			RBigToe			RSmallToe			RHeel			LHip			LKnee			LAnkle			LBigToe			LSmallToe			LHeel			Neck			Head			Nose			RShoulder			RElbow			RWrist			RThumb			RIndex			RPinky			LShoulder			LElbow			LWrist			LThumb			LIndex			LPinky		
		X1	Y1	Z1	X2	Y2	Z2	X3	Y3	Z3	X4	Y4	Z4	X5	Y5	Z5	X6	Y6	Z6	X7	Y7	Z7	X8	Y8	Z8	X9	Y9	Z9	X10	Y10	Z10	X11	Y11	Z11	X12	Y12	Z12	X13	Y13	Z13	X14	Y14	Z14	X15	Y15	Z15	X16	Y16	Z16	X17	Y17	Z17	X18	Y18	Z18	X19	Y19	Z19	X20	Y20	Z20	X21	Y21	Z21	X22	Y22	Z22	X23	Y23	Z23	X24	Y24	Z24	X25	Y25	Z25	X26	Y26	Z26	X27	Y27	Z27
547	9.116666666666667	444.7278968971717	3656.309701197457	564.0193723040919	855.8301964913458	3663.5484863767765	553.199609232206	1235.0254291034673	3704.043762836406	613.5823650310613	1322.9521364466	3612.138457182077	609.8355647996738	1302.5650205294457	3633.3012959151974	547.2351156817873	1262.6761033759005	3686.8419265355906	627.890211611118	446.61155159250734	3516.618966840425	740.7764747300558	866.711367261374	3545.408045515272	746.7425729184035	1202.5908008098866	3589.1796281458523	736.8378959544335	1310.5174568240843	3556.9726389831935	686.1727075317718	1273.4946024954452	3474.20294097823	715.802337239264	1249.078035466012	3615.721488023052	731.1018410733226	-120.66726475108379	3544.8781868931487	661.7647632366114	-372.39053634476863	3481.7788681894795	622.8246999654438	-224.43411633276745	3426.2703337327607	592.4310870977237	-44.98730905057434	3643.7234188827456	546.4580133702289	201.50330507897056	3781.0550463976083	516.213266761909	423.0854456687098	3672.6555551817723	421.5369997602677	542.4556891714044	3595.4700796481	407.7486099820947	562.115432981747	3603.571741907313	395.6687226231971	557.7876252578227	3669.4394334988506	403.11048189735885	-26.880216567427485	3517.2478249358264	847.5890659794318	230.95235921193998	3466.2736236229803	865.2599131340859	479.92412411104635	3439.2837677077773	857.0495297190814	579.0269367546823	3434.0372456687255	820.493055159212	600.0975544940414	3417.359491333213	830.103798405273	597.6081297254495	3387.3202805185306	882.1098372461283
548	9.133333333333333	453.7476313044527	3653.0159106704	562.4853372125937	861.4750204345873	3666.1613887190006	555.1065546980874	1241.1884113151232	3705.9112183775546	615.3095631306755	1325.3642196180397	3606.53692706889	606.7142648097145	1301.644563378197	3617.2730988728545	542.8592250766985	1262.8469158882913	3686.8384725966266	627.8967079522113	455.24373523172653	3513.5159333208294	739.2266359486104	872.2669064405184	3547.3147984896864	748.2682975495659	1205.2024987738587	3586.313961869728	729.3050402619607	1319.0603386907362	3555.896132243062	684.245295045762	1273.6552546199466	3474.269996065267	715.7254950052345	1257.9908068903471	3614.9027849523877	729.2473362267958	-121.03700737560362	3529.7752863820124	648.7580752089907	-372.38276964919305	3481.879124167821	622.8270094280326	-224.42668559518623	3426.2188073871553	592.4630305143819	-44.933848531683424	3643.436329937485	546.2683599179979	206.3874337603918	3782.90375941882	517.0650161300274	425.70076719102195	3692.4358172649813	425.5932199510491	542.8971055643243	3593.4079624270844	415.9390394096694	566.7356750693365	3634.070927389409	407.14657774000125	554.1078507924697	3675.483205069624	405.48151280950674	-22.69415305941971	3513.4175978507396	845.4400653101513	235.28323168799764	3460.1969990553876	867.0826253228944	479.9786388875601	3439.43163286751	857.1810658275762	583.1720440292598	3435.7935758910276	821.9041425295512	599.9451662317987	3417.249101834603	829.9326185922358	597.5668473772167	3387.6103176245333	882.3334157447849
549	9.15	453.72869355528184	3652.889829025783	562.3325450652783	856.4475520244167	3663.599381562832	553.378644719902	1228.2951966922105	3682.761649938072	608.187888979393	1325.3238851368656	3606.443311800318	606.7937519208784	1301.646517591921	3617.0106504648106	542.8328426652479	1265.1660225651246	3681.36341654039	625.0635095783539	455.139838329584	3513.400875267782	739.0566529105449	872.2595547664806	3547.428356605773	748.2339087277711	1205.0427171636543	3586.2702040195422	729.1447353014106	1318.9804925648662	3555.622507339599	684.3592309574585	1273.4608750859463	3474.0567837327294	715.6855866361713	1257.6882969515013	3614.9256872504006	729.1942853777363	-120.9598856478399	3529.710365929029	648.6969504897602	-372.36845066356113	3481.7284456128828	622.7100866998826	-224.38108931385827	3426.1616855103266	592.3028907650303	-44.93478195250107	3643.653815171946	546.3990219995407	201.3845609218336	3781.3134617692053	516.3262185749804	425.77833568917674	3692.61386946852	425.5899090286087	550.6751327744887	3616.169252616102	421.0280538503757	566.9669574293506	3634.3522216828133	407.19225489622517	557.8944300267359	3671.38920921992	403.40255006968005	-22.66336548039214	3513.486734394199	845.4027681936469	233.18287402336202	3447.9543322896716	848.7767963839375	480.00025588940485	3439.132695920349	856.8217105542707	583.3999057188289	3436.139583728849	822.0271174930865	599.9868756573968	3417.4995120827375	829.9234405537213	597.4737311489113	3387.1688715242117	881.9943492055262
550	9.166666666666666	453.9284594987044	3652.6084110544457	562.0683726019419	871.6305034377853	3665.009886912049	553.3526489480926	1228.340972279155	3683.125948604462	608.3530901018386	1319.8386252325276	3604.6680501850637	605.0830145557397	1296.3988825152155	3614.975896053747	541.0541385059942	1262.7366146448223	3686.5167684223006	627.7804519377303	459.733604076617	3514.5535306056777	739.8305675317304	872.4395460663326	3547.4906026388862	748.2100249265131	1217.1135063139202	3591.4653802728817	731.4685009872694	1319.341685415873	3556.06821000751	684.4651637391694	1273.738767235521	3474.209417810334	715.7585538464035	1257.8192086267456	3615.2038832185526	729.3426730027313	-121.0232411338087	3529.905971904653	648.7662108579892	-372.36157350432995	3481.7118873252334	622.688244892476	-224.38433125917348	3426.1009195380793	592.3207566370593	-44.779562756776066	3643.7023992632962	546.330701208231	206.49519797019832	3782.602412931616	516.9904224619602	429.6353267852792	3687.5598354679064	423.1202129589831	547.6670149583344	3596.6408932859745	416.9424640381791	575.1793430969121	3628.2836379673167	409.64717065667355	558.1940582690044	3671.778939681236	403.61615440280315	-22.618411728587514	3517.305247946791	842.2688942051439	233.0992759136842	3453.5830120382884	852.4420253071463	481.1037512683976	3426.888007572656	844.519724547301	583.5766678915844	3436.4986533701594	822.2598187108368	600.0744432097322	3417.604284551525	829.9945011829044	597.4116495501482	3386.510261243098	881.4339268036007
551	9.183333333333334	458.0562223225799	3647.1915759444373	559.3317626088583	856.4299281759418	3663.727153203058	553.056770908131	1228.103905013279	3682.8628623606946	608.1606557185972	1319.9991493977163	3605.0053438428863	605.3817485517129	1296.4244642520403	3615.240028437637	541.2178502120082	1262.6796394487196	3686.330238792039	627.7363533968961	455.00874837990796	3512.735714211793	738.6170178508066	872.1923680779995	3547.285027433438	748.1818443090157	1205.016877035958	3584.222308583154	733.6846362059733	1326.5842777476057	3575.8075013082043	690.0031851645084	1273.6863284215287	3474.297018872065	715.7375910890405	1251.4551243066294	3611.0252595088014	728.3774860906078	-116.48169792921763	3546.6987569077755	662.5214961907362	-372.3572274760395	3481.7832654307585	622.7293138180953	-224.23637512498848	3425.79115850077	592.0248159118905	-40.22857999120058	3639.499827792527	544.2098651996897	201.4714375206358	3780.7754412844324	516.0749937473307	429.594155515299	3687.6513226913485	423.1589598967177	546.8662912629408	3587.7923184448696	413.58234085821107	566.4629181406234	3624.4684818777987	403.6833294857397	557.939090160563	3671.5331651064857	403.3465848462326	-22.553064132153	3513.7804028052083	845.5254772280141	241.63345234610333	3450.6572412435435	850.5722500260491	481.14783614239826	3426.8793002756393	844.5177627082337	587.123693767434	3431.5217396093176	819.1192804788881	600.1823329714616	3417.237758795773	829.6488340404584	597.5650039765137	3386.5577690249074	881.4811537672939
